<?xml version="1.0" encoding="utf-8"?>
<!-- Svg Vector Icons : http://www.onlinewebfonts.com/icon -->
<!DOCTYPE svg PUBLIC "-//W3C//DTD SVG 1.1//EN" "http://www.w3.org/Graphics/SVG/1.1/DTD/svg11.dtd">
<svg version="1.1" xmlns="http://www.w3.org/2000/svg" xmlns:xlink="http://www.w3.org/1999/xlink" fill="white" x="0px" y="0px" viewBox="0 0 1000 1000" enable-background="new 0 0 1000 1000" xml:space="preserve">
<metadata> Svg Vector Icons : http://www.onlinewebfonts.com/icon </metadata>
<g><path d="M67.4,887.4c-10.2,0-20.4-2.7-29.7-8.3c-27.2-16.4-35.8-51.7-19.4-78.9l131.7-217.6c9.9-16.4,27.4-26.8,46.5-27.6c18.9-0.9,37.5,7.9,48.9,23.3l53.5,72.5l117-195.8c9.8-16.4,27.1-26.8,46.2-27.9c19.3-1,37.4,7.4,49,22.6l101.5,133.8l271-443.3c16.5-27.1,51.9-35.6,79-19.1c27.1,16.5,35.6,51.9,19.1,79L666.7,715.3c-9.9,16.2-27.2,26.5-46.1,27.4c-18.8,1-37.2-7.5-48.7-22.7L470.9,586.9L353.3,783.8c-9.9,16.5-27.3,27-46.5,27.9c-19,1.1-37.6-7.8-49-23.3l-53.8-73l-87.3,144.2C105.8,877.5,86.9,887.4,67.4,887.4z"/></g>
</svg>